<svg xmlns="http://www.w3.org/2000/svg" width="202" height="64" viewBox="0 0 202 64" fill="none" role="img" aria-label="loom">
  <title>loom</title>
  <!-- Horizontal lockup: woven plain-weave mark + "loom" wordmark.
       Self-contained dark backing chip so it stays legible on BOTH GitHub light and
       dark README backgrounds. Mark carries the phosphor brand signal; wordmark is
       Space Grotesk SemiBold (weight 600, 0.12em tracking) converted to outlines so it
       renders identically everywhere GitHub strips embedded fonts.
       Brand source: packages/web/src/components/Logo.tsx + site/styles.css. -->

  <!-- Backing chip -->
  <rect x="0.5" y="0.5" width="201" height="63" rx="10" fill="#0b0c0e" stroke="#232a31"/>

  <!-- Woven mark, scaled from the 24x24 source to 32px, inset and vertically centered -->
  <g transform="translate(20 16) scale(1.33333)" stroke="#2ee66e" stroke-width="2.4" stroke-linecap="round">
    <path d="M8 4 V13.2 M8 18.8 V20"/>
    <path d="M16 4 V5.2 M16 10.8 V20"/>
    <path d="M4 8 H5.2 M10.8 8 H20"/>
    <path d="M4 16 H13.2 M18.8 16 H20"/>
  </g>

  <!-- "loom" wordmark (Space Grotesk SemiBold, outlined) -->
  <g transform="translate(64.79 44)" fill="#e6eaed">
    <path d="M8.27 0L3.21 0L3.21-30.80L8.27-30.80L8.27 0ZM30.27 0.62L30.27 0.62Q27.02 0.62 24.44-0.73Q21.87-2.07 20.39-4.55Q18.92-7.04 18.92-10.52L18.92-10.52L18.92-11.22Q18.92-14.70 20.39-17.20Q21.87-19.71 24.44-21.03Q27.02-22.35 30.27-22.35L30.27-22.35Q33.53-22.35 36.08-21.03Q38.63-19.71 40.11-17.20Q41.58-14.70 41.58-11.22L41.58-11.22L41.58-10.52Q41.58-7.04 40.11-4.55Q38.63-2.07 36.08-0.73Q33.53 0.62 30.27 0.62ZM30.27-3.87L30.27-3.87Q33.04-3.87 34.80-5.65Q36.56-7.44 36.56-10.65L36.56-10.65L36.56-11.09Q36.56-14.30 34.80-16.08Q33.04-17.86 30.27-17.86L30.27-17.86Q27.50-17.86 25.74-16.08Q23.98-14.30 23.98-11.09L23.98-11.09L23.98-10.65Q23.98-7.44 25.74-5.65Q27.50-3.87 30.27-3.87ZM62.52 0.62L62.52 0.62Q59.27 0.62 56.69-0.73Q54.12-2.07 52.65-4.55Q51.17-7.04 51.17-10.52L51.17-10.52L51.17-11.22Q51.17-14.70 52.65-17.20Q54.12-19.71 56.69-21.03Q59.27-22.35 62.52-22.35L62.52-22.35Q65.78-22.35 68.33-21.03Q70.88-19.71 72.36-17.20Q73.83-14.70 73.83-11.22L73.83-11.22L73.83-10.52Q73.83-7.04 72.36-4.55Q70.88-2.07 68.33-0.73Q65.78 0.62 62.52 0.62ZM62.52-3.87L62.52-3.87Q65.30-3.87 67.06-5.65Q68.82-7.44 68.82-10.65L68.82-10.65L68.82-11.09Q68.82-14.30 67.06-16.08Q65.30-17.86 62.52-17.86L62.52-17.86Q59.75-17.86 57.99-16.08Q56.23-14.30 56.23-11.09L56.23-11.09L56.23-10.65Q56.23-7.44 57.99-5.65Q59.75-3.87 62.52-3.87ZM89.54 0L84.48 0L84.48-21.74L89.45-21.74L89.45-19.32L90.20-19.32Q90.77-20.42 92.11-21.27Q93.46-22.13 95.70-22.13L95.70-22.13Q98.08-22.13 99.53-21.16Q100.98-20.20 101.73-18.70L101.73-18.70L102.43-18.70Q103.18-20.20 104.59-21.16Q106.00-22.13 108.59-22.13L108.59-22.13Q110.62-22.13 112.27-21.25Q113.92-20.37 114.91-18.66Q115.90-16.94 115.90-14.39L115.90-14.39L115.90 0L110.84 0L110.84-14.04Q110.84-15.93 109.82-16.92Q108.81-17.91 107.01-17.91L107.01-17.91Q105.03-17.91 103.86-16.61Q102.70-15.31 102.70-12.89L102.70-12.89L102.70 0L97.68 0L97.68-14.04Q97.68-15.93 96.67-16.92Q95.66-17.91 93.85-17.91L93.85-17.91Q91.83-17.91 90.68-16.61Q89.54-15.31 89.54-12.89L89.54-12.89L89.54 0Z"/>
  </g>
</svg>
